<svg width="22.000000" height="22.000000" viewBox="0 0 22 22" fill="none" xmlns="http://www.w3.org/2000/svg" xmlns:xlink="http://www.w3.org/1999/xlink">
	<desc>
			Created with Pixso.
	</desc>
	<defs/>
	<path id="矢量 14" d="M0 2.44L0 19.55C0 20.9 1.08 22 2.44 22L19.55 22C20.9 22 22 20.9 22 19.55L22 2.44C22 1.1 20.9 0 19.55 0L2.44 0C1.08 0 0 1.1 0 2.44ZM14.66 7.33C14.66 9.36 13.02 11 11 11C8.97 11 7.33 9.36 7.33 7.33C7.33 5.3 8.97 3.66 11 3.66C13.02 3.66 14.66 5.3 14.66 7.33ZM3.66 17.11C3.66 14.66 8.55 13.32 11 13.32C13.44 13.32 18.33 14.66 18.33 17.11L18.33 18.33L3.66 18.33L3.66 17.11Z" fill="#0B4A81" fill-opacity="1.000000" fill-rule="evenodd"/>
</svg>
