<svg width="22.000000" height="22.000000" viewBox="0 0 22 22" fill="none" xmlns="http://www.w3.org/2000/svg" xmlns:xlink="http://www.w3.org/1999/xlink">
	<desc>
			Created with Pixso.
	</desc>
	<defs/>
	<path id="矢量 40" d="M0 11L22 11L22 20.9C22 21.19 21.88 21.47 21.67 21.67C21.47 21.88 21.19 22 20.9 22L1.1 22C0.8 22 0.52 21.88 0.32 21.67C0.11 21.47 0 21.19 0 20.9L0 11ZM16.5 2.2L20.9 2.2C21.19 2.2 21.47 2.31 21.67 2.52C21.88 2.72 22 3 22 3.29L22 8.8L0 8.8L0 3.29C0 3 0.11 2.72 0.32 2.52C0.52 2.31 0.8 2.2 1.1 2.2L5.5 2.2L5.5 0L7.7 0L7.7 2.2L14.3 2.2L14.3 0L16.5 0L16.5 2.2Z" fill="#0B4A81" fill-opacity="1.000000" fill-rule="evenodd"/>
</svg>
