<svg width="20.000000" height="25.000000" viewBox="0 0 20 25" fill="none" xmlns="http://www.w3.org/2000/svg" xmlns:xlink="http://www.w3.org/1999/xlink">
	<desc>
			Created with Pixso.
	</desc>
	<defs/>
	<path id="Vector" d="M10 9.06C12.64 9.06 14.99 8.52 16.65 7.69C17.3 7.44 18.79 6.61 19.8 5.28C19.93 5.1 19.99 4.87 19.96 4.65C19.93 4.44 19.88 4.21 19.83 4.07C18.96 1.75 14.89 0 10 0C5.1 0 1.03 1.75 0.16 4.07C0.11 4.21 0.06 4.44 0.03 4.65C0 4.87 0.06 5.1 0.19 5.28C1.2 6.61 2.69 7.44 3.34 7.69C5 8.52 7.35 9.06 10 9.06ZM10 10.93C12.87 10.93 15.52 10.35 17.49 9.37C18.48 8.87 19.37 8.23 20 7.46L20 12.5C20 13.12 17.76 14.48 16.65 15.19C14.99 16.02 12.64 16.56 10 16.56C7.35 16.56 5 16.02 3.34 15.19C1.87 14.46 0 13.12 0 12.5L0 7.46C0.62 8.23 1.51 8.87 2.5 9.37C4.47 10.35 7.12 10.93 10 10.93ZM20 20C20 22.76 15.52 25 10 25C4.47 25 0 22.76 0 20L0 14.96C0.62 15.73 1.51 16.37 2.5 16.87C4.47 17.85 7.12 18.43 10 18.43C12.87 18.43 15.52 17.85 17.49 16.87C18.48 16.37 19.37 15.73 20 14.96L20 20Z" fill="#0B4A81" fill-opacity="1.000000" fill-rule="evenodd"/>
</svg>
