<svg width="22.000000" height="22.000000" viewBox="0 0 22 22" fill="none" xmlns="http://www.w3.org/2000/svg" xmlns:xlink="http://www.w3.org/1999/xlink">
	<desc>
			Created with Pixso.
	</desc>
	<defs/>
	<path id="Mask" d="M22 4.88889C22 7.58896 19.8112 9.77777 17.1111 9.77777C14.411 9.77777 12.2222 7.58896 12.2222 4.88889C12.2222 2.18884 14.411 0 17.1111 0C19.8112 0 22 2.18884 22 4.88889ZM9.77777 2.44446L2.44446 2.44446C1.09442 2.44446 0 3.53885 0 4.88889L0 19.5555C0 20.9056 1.09442 22 2.44446 22L17.1111 22C18.4612 22 19.5555 20.9056 19.5555 19.5555L19.5555 12.2222L17.1111 12.2222L17.1111 19.5555L2.44446 19.5555L2.44446 4.88889L9.77777 4.88889L9.77777 2.44446Z" clip-rule="evenodd" fill="#0B4A81" fill-opacity="1.000000" fill-rule="evenodd"/>
</svg>
